<mxfile host="app.diagrams.net" agent="Mozilla/5.0 (X11; Linux x86_64; rv:130.0) Gecko/20100101 Firefox/130.0" version="24.7.16">
  <diagram name="Page-1" id="6jiXHz5qV-a8cUfIUMDS">
    <mxGraphModel dx="2327" dy="823" grid="1" gridSize="10" guides="1" tooltips="1" connect="1" arrows="1" fold="1" page="1" pageScale="1" pageWidth="850" pageHeight="1100" math="0" shadow="0">
      <root>
        <mxCell id="0" />
        <mxCell id="1" parent="0" />
        <mxCell id="J69_tRvtiRPlGIT4uxlo-11" value="frame" style="shape=umlFrame;whiteSpace=wrap;html=1;pointerEvents=0;" vertex="1" parent="1">
          <mxGeometry x="180" y="130" width="900" height="480" as="geometry" />
        </mxCell>
        <mxCell id="J69_tRvtiRPlGIT4uxlo-12" value="" style="image;sketch=0;aspect=fixed;html=1;points=[];align=center;fontSize=12;image=img/lib/mscae/Docker.svg;" vertex="1" parent="1">
          <mxGeometry x="1100" y="280" width="97.56" height="80" as="geometry" />
        </mxCell>
        <mxCell id="J69_tRvtiRPlGIT4uxlo-13" value="" style="image;sketch=0;aspect=fixed;html=1;points=[];align=center;fontSize=12;image=img/lib/mscae/Kubernetes.svg;" vertex="1" parent="1">
          <mxGeometry x="1112.3200000000002" y="400" width="72.92" height="70" as="geometry" />
        </mxCell>
        <mxCell id="J69_tRvtiRPlGIT4uxlo-19" style="edgeStyle=orthogonalEdgeStyle;rounded=0;orthogonalLoop=1;jettySize=auto;html=1;exitX=1;exitY=0;exitDx=0;exitDy=0;" edge="1" parent="1" source="J69_tRvtiRPlGIT4uxlo-18">
          <mxGeometry relative="1" as="geometry">
            <mxPoint x="70" y="445" as="targetPoint" />
            <Array as="points">
              <mxPoint x="-50" y="446" />
            </Array>
          </mxGeometry>
        </mxCell>
        <mxCell id="J69_tRvtiRPlGIT4uxlo-18" value="" style="swimlane;startSize=0;" vertex="1" parent="1">
          <mxGeometry x="-130" y="400" width="80" height="90" as="geometry" />
        </mxCell>
        <mxCell id="J69_tRvtiRPlGIT4uxlo-14" value="" style="image;aspect=fixed;html=1;points=[];align=center;fontSize=12;image=img/lib/azure2/identity/Users.svg;" vertex="1" parent="J69_tRvtiRPlGIT4uxlo-18">
          <mxGeometry x="17.14" y="10" width="45.71" height="50" as="geometry" />
        </mxCell>
        <mxCell id="J69_tRvtiRPlGIT4uxlo-16" value="&lt;font data-darkreader-inline-color=&quot;&quot; style=&quot;--darkreader-inline-color: #3da8ff;&quot; color=&quot;#3399ff&quot;&gt;Client&lt;/font&gt;" style="text;strokeColor=none;align=center;fillColor=none;html=1;verticalAlign=middle;whiteSpace=wrap;rounded=0;" vertex="1" parent="J69_tRvtiRPlGIT4uxlo-18">
          <mxGeometry x="10" y="60" width="60" height="30" as="geometry" />
        </mxCell>
        <mxCell id="J69_tRvtiRPlGIT4uxlo-25" style="edgeStyle=orthogonalEdgeStyle;rounded=0;orthogonalLoop=1;jettySize=auto;html=1;exitX=1;exitY=0;exitDx=0;exitDy=0;" edge="1" parent="1" source="J69_tRvtiRPlGIT4uxlo-22">
          <mxGeometry relative="1" as="geometry">
            <mxPoint x="200" y="330" as="targetPoint" />
            <Array as="points">
              <mxPoint x="160" y="330" />
            </Array>
          </mxGeometry>
        </mxCell>
        <mxCell id="J69_tRvtiRPlGIT4uxlo-22" value="&lt;div&gt;API&lt;/div&gt;&lt;div&gt;Gateway&lt;/div&gt;&lt;div&gt;&lt;br&gt;&lt;/div&gt;" style="whiteSpace=wrap;html=1;aspect=fixed;fillColor=#b1ddf0;strokeColor=#10739e;" vertex="1" parent="1">
          <mxGeometry x="80" y="405" width="80" height="80" as="geometry" />
        </mxCell>
        <mxCell id="J69_tRvtiRPlGIT4uxlo-42" style="edgeStyle=orthogonalEdgeStyle;rounded=0;orthogonalLoop=1;jettySize=auto;html=1;exitX=1;exitY=0;exitDx=0;exitDy=0;entryX=0;entryY=0.5;entryDx=0;entryDy=0;" edge="1" parent="1" source="J69_tRvtiRPlGIT4uxlo-35" target="J69_tRvtiRPlGIT4uxlo-40">
          <mxGeometry relative="1" as="geometry" />
        </mxCell>
        <mxCell id="J69_tRvtiRPlGIT4uxlo-35" value="" style="swimlane;startSize=0;" vertex="1" parent="1">
          <mxGeometry x="200" y="300" width="110" height="70" as="geometry" />
        </mxCell>
        <mxCell id="J69_tRvtiRPlGIT4uxlo-39" value="&lt;div&gt;User Service&lt;/div&gt;&lt;div&gt;&lt;br&gt;&lt;/div&gt;" style="text;strokeColor=none;align=center;fillColor=none;html=1;verticalAlign=middle;whiteSpace=wrap;rounded=0;" vertex="1" parent="J69_tRvtiRPlGIT4uxlo-35">
          <mxGeometry x="25" y="30" width="60" height="30" as="geometry" />
        </mxCell>
        <mxCell id="J69_tRvtiRPlGIT4uxlo-45" style="edgeStyle=orthogonalEdgeStyle;rounded=0;orthogonalLoop=1;jettySize=auto;html=1;exitX=1;exitY=1;exitDx=0;exitDy=0;entryX=0;entryY=0.5;entryDx=0;entryDy=0;" edge="1" parent="1" source="J69_tRvtiRPlGIT4uxlo-40" target="J69_tRvtiRPlGIT4uxlo-43">
          <mxGeometry relative="1" as="geometry" />
        </mxCell>
        <mxCell id="J69_tRvtiRPlGIT4uxlo-50" style="edgeStyle=orthogonalEdgeStyle;rounded=0;orthogonalLoop=1;jettySize=auto;html=1;exitX=1;exitY=0.5;exitDx=0;exitDy=0;entryX=0;entryY=0.5;entryDx=0;entryDy=0;" edge="1" parent="1" source="J69_tRvtiRPlGIT4uxlo-40" target="J69_tRvtiRPlGIT4uxlo-46">
          <mxGeometry relative="1" as="geometry" />
        </mxCell>
        <mxCell id="J69_tRvtiRPlGIT4uxlo-40" value="" style="swimlane;startSize=0;" vertex="1" parent="1">
          <mxGeometry x="390" y="230" width="110" height="70" as="geometry" />
        </mxCell>
        <mxCell id="J69_tRvtiRPlGIT4uxlo-41" value="&lt;div&gt;Cart &lt;br&gt;&lt;/div&gt;&lt;div&gt;Service&lt;/div&gt;&lt;div&gt;&lt;br&gt;&lt;/div&gt;" style="text;strokeColor=none;align=center;fillColor=none;html=1;verticalAlign=middle;whiteSpace=wrap;rounded=0;" vertex="1" parent="J69_tRvtiRPlGIT4uxlo-40">
          <mxGeometry x="25" y="30" width="60" height="30" as="geometry" />
        </mxCell>
        <mxCell id="J69_tRvtiRPlGIT4uxlo-56" style="edgeStyle=orthogonalEdgeStyle;rounded=0;orthogonalLoop=1;jettySize=auto;html=1;exitX=1;exitY=0.5;exitDx=0;exitDy=0;entryX=0;entryY=0.5;entryDx=0;entryDy=0;" edge="1" parent="1" source="J69_tRvtiRPlGIT4uxlo-43" target="J69_tRvtiRPlGIT4uxlo-52">
          <mxGeometry relative="1" as="geometry" />
        </mxCell>
        <mxCell id="J69_tRvtiRPlGIT4uxlo-43" value="" style="swimlane;startSize=0;" vertex="1" parent="1">
          <mxGeometry x="550" y="380" width="110" height="70" as="geometry" />
        </mxCell>
        <mxCell id="J69_tRvtiRPlGIT4uxlo-44" value="&lt;div&gt;Component&lt;/div&gt;&lt;div&gt;Service&lt;/div&gt;&lt;div&gt;&lt;br&gt;&lt;/div&gt;" style="text;strokeColor=none;align=center;fillColor=none;html=1;verticalAlign=middle;whiteSpace=wrap;rounded=0;" vertex="1" parent="J69_tRvtiRPlGIT4uxlo-43">
          <mxGeometry x="25" y="30" width="60" height="30" as="geometry" />
        </mxCell>
        <mxCell id="J69_tRvtiRPlGIT4uxlo-55" style="edgeStyle=orthogonalEdgeStyle;rounded=0;orthogonalLoop=1;jettySize=auto;html=1;exitX=1;exitY=1;exitDx=0;exitDy=0;entryX=0.5;entryY=0;entryDx=0;entryDy=0;" edge="1" parent="1" source="J69_tRvtiRPlGIT4uxlo-46" target="J69_tRvtiRPlGIT4uxlo-52">
          <mxGeometry relative="1" as="geometry" />
        </mxCell>
        <mxCell id="J69_tRvtiRPlGIT4uxlo-46" value="" style="swimlane;startSize=0;" vertex="1" parent="1">
          <mxGeometry x="690" y="230" width="110" height="70" as="geometry" />
        </mxCell>
        <mxCell id="J69_tRvtiRPlGIT4uxlo-47" value="&lt;div&gt;Recommendation&lt;/div&gt;&lt;div&gt;Service&lt;br&gt;&lt;/div&gt;" style="text;strokeColor=none;align=center;fillColor=none;html=1;verticalAlign=middle;whiteSpace=wrap;rounded=0;" vertex="1" parent="J69_tRvtiRPlGIT4uxlo-46">
          <mxGeometry x="25" y="20" width="60" height="30" as="geometry" />
        </mxCell>
        <mxCell id="J69_tRvtiRPlGIT4uxlo-51" style="edgeStyle=orthogonalEdgeStyle;rounded=0;orthogonalLoop=1;jettySize=auto;html=1;exitX=1;exitY=0;exitDx=0;exitDy=0;entryX=0.5;entryY=1;entryDx=0;entryDy=0;" edge="1" parent="1" source="J69_tRvtiRPlGIT4uxlo-43" target="J69_tRvtiRPlGIT4uxlo-46">
          <mxGeometry relative="1" as="geometry" />
        </mxCell>
        <mxCell id="J69_tRvtiRPlGIT4uxlo-52" value="" style="swimlane;startSize=0;" vertex="1" parent="1">
          <mxGeometry x="790" y="380" width="110" height="70" as="geometry" />
        </mxCell>
        <mxCell id="J69_tRvtiRPlGIT4uxlo-53" value="&lt;div&gt;Store&lt;/div&gt;&lt;div&gt;Service&lt;/div&gt;&lt;div&gt;&lt;br&gt;&lt;/div&gt;" style="text;strokeColor=none;align=center;fillColor=none;html=1;verticalAlign=middle;whiteSpace=wrap;rounded=0;" vertex="1" parent="J69_tRvtiRPlGIT4uxlo-52">
          <mxGeometry x="25" y="30" width="60" height="30" as="geometry" />
        </mxCell>
        <mxCell id="J69_tRvtiRPlGIT4uxlo-57" value="" style="swimlane;startSize=0;" vertex="1" parent="1">
          <mxGeometry x="860" y="230" width="110" height="70" as="geometry" />
        </mxCell>
        <mxCell id="J69_tRvtiRPlGIT4uxlo-58" value="&lt;div&gt;Review&lt;/div&gt;&lt;div&gt;Service&lt;br&gt;&lt;/div&gt;" style="text;strokeColor=none;align=center;fillColor=none;html=1;verticalAlign=middle;whiteSpace=wrap;rounded=0;" vertex="1" parent="J69_tRvtiRPlGIT4uxlo-57">
          <mxGeometry x="25" y="20" width="60" height="30" as="geometry" />
        </mxCell>
        <mxCell id="J69_tRvtiRPlGIT4uxlo-59" style="edgeStyle=orthogonalEdgeStyle;rounded=0;orthogonalLoop=1;jettySize=auto;html=1;entryX=0;entryY=0.5;entryDx=0;entryDy=0;" edge="1" parent="1" source="J69_tRvtiRPlGIT4uxlo-47" target="J69_tRvtiRPlGIT4uxlo-57">
          <mxGeometry relative="1" as="geometry" />
        </mxCell>
        <mxCell id="J69_tRvtiRPlGIT4uxlo-62" style="edgeStyle=orthogonalEdgeStyle;rounded=0;orthogonalLoop=1;jettySize=auto;html=1;exitX=1;exitY=0.5;exitDx=0;exitDy=0;entryX=0;entryY=0.5;entryDx=0;entryDy=0;" edge="1" parent="1" source="J69_tRvtiRPlGIT4uxlo-60" target="J69_tRvtiRPlGIT4uxlo-43">
          <mxGeometry relative="1" as="geometry" />
        </mxCell>
        <mxCell id="J69_tRvtiRPlGIT4uxlo-60" value="" style="swimlane;startSize=0;" vertex="1" parent="1">
          <mxGeometry x="340" y="430" width="110" height="70" as="geometry" />
        </mxCell>
        <mxCell id="J69_tRvtiRPlGIT4uxlo-61" value="&lt;div&gt;Search&lt;/div&gt;&lt;div&gt;Service&lt;br&gt;&lt;/div&gt;" style="text;strokeColor=none;align=center;fillColor=none;html=1;verticalAlign=middle;whiteSpace=wrap;rounded=0;" vertex="1" parent="J69_tRvtiRPlGIT4uxlo-60">
          <mxGeometry x="25" y="20" width="60" height="30" as="geometry" />
        </mxCell>
        <mxCell id="J69_tRvtiRPlGIT4uxlo-63" value="" style="dashed=0;outlineConnect=0;html=1;align=center;labelPosition=center;verticalLabelPosition=bottom;verticalAlign=top;shape=mxgraph.webicons.mongodb;gradientColor=#DFDEDE" vertex="1" parent="1">
          <mxGeometry x="580" y="460" width="42.4" height="40" as="geometry" />
        </mxCell>
        <mxCell id="J69_tRvtiRPlGIT4uxlo-64" value="" style="image;aspect=fixed;html=1;points=[];align=center;fontSize=12;image=img/lib/azure2/databases/SQL_Database.svg;" vertex="1" parent="1">
          <mxGeometry x="210" y="240" width="37.5" height="50" as="geometry" />
        </mxCell>
        <mxCell id="J69_tRvtiRPlGIT4uxlo-65" value="" style="image;sketch=0;aspect=fixed;html=1;points=[];align=center;fontSize=12;image=img/lib/mscae/Cache_Redis_Product.svg;" vertex="1" parent="1">
          <mxGeometry x="420" y="180" width="50" height="42" as="geometry" />
        </mxCell>
        <mxCell id="J69_tRvtiRPlGIT4uxlo-67" value="" style="dashed=0;outlineConnect=0;html=1;align=center;labelPosition=center;verticalLabelPosition=bottom;verticalAlign=top;shape=mxgraph.webicons.mongodb;gradientColor=#DFDEDE" vertex="1" parent="1">
          <mxGeometry x="823.8" y="460" width="42.4" height="40" as="geometry" />
        </mxCell>
        <mxCell id="J69_tRvtiRPlGIT4uxlo-72" value="" style="sketch=0;points=[[0,0,0],[0.25,0,0],[0.5,0,0],[0.75,0,0],[1,0,0],[0,1,0],[0.25,1,0],[0.5,1,0],[0.75,1,0],[1,1,0],[0,0.25,0],[0,0.5,0],[0,0.75,0],[1,0.25,0],[1,0.5,0],[1,0.75,0]];outlineConnect=0;fontColor=#232F3E;fillColor=#8C4FFF;strokeColor=#ffffff;dashed=0;verticalLabelPosition=bottom;verticalAlign=top;align=center;html=1;fontSize=12;fontStyle=0;aspect=fixed;shape=mxgraph.aws4.resourceIcon;resIcon=mxgraph.aws4.elasticsearch_service;" vertex="1" parent="1">
          <mxGeometry x="730" y="192" width="30" height="30" as="geometry" />
        </mxCell>
        <mxCell id="J69_tRvtiRPlGIT4uxlo-73" value="" style="dashed=0;outlineConnect=0;html=1;align=center;labelPosition=center;verticalLabelPosition=bottom;verticalAlign=top;shape=mxgraph.webicons.mongodb;gradientColor=#DFDEDE" vertex="1" parent="1">
          <mxGeometry x="893.8" y="180" width="42.4" height="40" as="geometry" />
        </mxCell>
        <mxCell id="J69_tRvtiRPlGIT4uxlo-74" value="" style="sketch=0;points=[[0,0,0],[0.25,0,0],[0.5,0,0],[0.75,0,0],[1,0,0],[0,1,0],[0.25,1,0],[0.5,1,0],[0.75,1,0],[1,1,0],[0,0.25,0],[0,0.5,0],[0,0.75,0],[1,0.25,0],[1,0.5,0],[1,0.75,0]];outlineConnect=0;fontColor=#232F3E;fillColor=#8C4FFF;strokeColor=#ffffff;dashed=0;verticalLabelPosition=bottom;verticalAlign=top;align=center;html=1;fontSize=12;fontStyle=0;aspect=fixed;shape=mxgraph.aws4.resourceIcon;resIcon=mxgraph.aws4.elasticsearch_service;" vertex="1" parent="1">
          <mxGeometry x="380" y="510" width="30" height="30" as="geometry" />
        </mxCell>
        <mxCell id="J69_tRvtiRPlGIT4uxlo-75" value="" style="image;aspect=fixed;html=1;points=[];align=center;fontSize=12;image=img/lib/azure2/security/Security_Center.svg;" vertex="1" parent="1">
          <mxGeometry x="260" y="240" width="41.18" height="50" as="geometry" />
        </mxCell>
        <mxCell id="J69_tRvtiRPlGIT4uxlo-76" value="&lt;div&gt;JWT&lt;/div&gt;&lt;div&gt;&lt;br&gt;&lt;/div&gt;" style="text;strokeColor=none;align=center;fillColor=none;html=1;verticalAlign=middle;whiteSpace=wrap;rounded=0;" vertex="1" parent="1">
          <mxGeometry x="250.59" y="222" width="60" height="30" as="geometry" />
        </mxCell>
      </root>
    </mxGraphModel>
  </diagram>
</mxfile>
